# xmcd
#
# Track frame offsets:
#	150
#	15329
#	31793
#	49115
#	72916
#	86649
#	100524
#	117069
#	133266
#	148028
#	164723
#	178504
#	195693
#	212064
#	229411
#	245092
#
# Disc length: 3497 seconds
# Revision: 0
# Processed by: cddbd v1.5.2PL0 Copyright (c) Steve Scherf et al.
# Submitted via: dBpowerAMP V12.0
#
DISCID=e00da710
DTITLE=C.C. Catch - Classics
DYEAR=1989
DGENRE=Eurodisco
TTITLE0=Backseat of your Cadillac (Radio Mix)
TTITLE1=Are you man enough (Radio Version)
TTITLE2=Good Guys only win in Movies (Radio Version)
TTITLE3=Midnight Gambler
TTITLE4=Baby I need your Love (Radio Version)
TTITLE5=House of Mystic Lights (Radio Swing Mix)
TTITLE6=Strangers by Night (Radio Version)
TTITLE7=Heartbreak Hotel
TTITLE8=Soul Survivor (Radio Mix)
TTITLE9=Heaven and Hell
TTITLE10=Nothing but a Heartache (Radio Mix)
TTITLE11=Jump in my Car
TTITLE12=Heartbeat City
TTITLE13=I can lose my Heart tonight
TTITLE14='Cause you are young
TTITLE15=Summer Kisses (Radio Version)
EXTD=
EXTT0=
EXTT1=
EXTT2=
EXTT3=
EXTT4=
EXTT5=
EXTT6=
EXTT7=
EXTT8=
EXTT9=
EXTT10=
EXTT11=
EXTT12=
EXTT13=
EXTT14=
EXTT15=
PLAYORDER=
